<svg width="20" height="20" viewBox="0 0 20 20" fill="none" xmlns="http://www.w3.org/2000/svg">
<path d="M3.10501 2.28901C2.98111 2.27145 2.85479 2.28517 2.73755 2.32891C2.62031 2.37266 2.51588 2.44505 2.43378 2.53948C2.35167 2.63391 2.2945 2.74739 2.26746 2.86957C2.24043 2.99175 2.2444 3.11875 2.27901 3.23901L3.69301 8.16401C3.78289 8.47703 3.97221 8.75229 4.23235 8.94821C4.4925 9.14413 4.80934 9.25007 5.13501 9.25001H11.25C11.4489 9.25001 11.6397 9.32903 11.7803 9.46968C11.921 9.61033 12 9.8011 12 10C12 10.1989 11.921 10.3897 11.7803 10.5303C11.6397 10.671 11.4489 10.75 11.25 10.75H5.13501C4.80934 10.75 4.4925 10.8559 4.23235 11.0518C3.97221 11.2477 3.78289 11.523 3.69301 11.836L2.27901 16.762C2.2444 16.8823 2.24043 17.0093 2.26746 17.1314C2.2945 17.2536 2.35167 17.3671 2.43378 17.4615C2.51588 17.556 2.62031 17.6284 2.73755 17.6721C2.85479 17.7158 2.98111 17.7296 3.10501 17.712C8.8012 16.903 14.1262 14.412 18.398 10.558C18.4762 10.4877 18.5387 10.4017 18.5814 10.3057C18.6242 10.2096 18.6463 10.1056 18.6463 10.0005C18.6463 9.89537 18.6242 9.7914 18.5814 9.69536C18.5387 9.59931 18.4762 9.51334 18.398 9.44301C14.1262 5.58911 8.80119 3.0981 3.10501 2.28901Z" fill="white"/>
</svg>
