<svg width="25" height="24" viewBox="0 0 25 24" fill="none" xmlns="http://www.w3.org/2000/svg">
<path fill-rule="evenodd" clip-rule="evenodd" d="M12.5 0C5.87231 0 0.5 5.37231 0.5 12C0.5 18.6277 5.87231 24 12.5 24C19.1277 24 24.5 18.6277 24.5 12C24.5 5.37231 19.1277 0 12.5 0ZM17.7677 12.6523C17.9406 12.4792 18.0376 12.2446 18.0376 12C18.0376 11.7554 17.9406 11.5208 17.7677 11.3477L14.0754 7.65539C13.9909 7.56469 13.889 7.49195 13.7757 7.4415C13.6625 7.39105 13.5403 7.36392 13.4163 7.36173C13.2924 7.35955 13.1693 7.38235 13.0543 7.42877C12.9394 7.4752 12.835 7.5443 12.7473 7.63195C12.6597 7.71961 12.5906 7.82402 12.5442 7.93896C12.4977 8.0539 12.4749 8.17701 12.4771 8.30095C12.4793 8.42489 12.5064 8.54712 12.5569 8.66035C12.6073 8.77358 12.6801 8.87549 12.7708 8.96L14.8877 11.0769H7.88462C7.6398 11.0769 7.40501 11.1742 7.2319 11.3473C7.05879 11.5204 6.96154 11.7552 6.96154 12C6.96154 12.2448 7.05879 12.4796 7.2319 12.6527C7.40501 12.8258 7.6398 12.9231 7.88462 12.9231H14.8877L12.7708 15.04C12.6801 15.1245 12.6073 15.2264 12.5569 15.3396C12.5064 15.4529 12.4793 15.5751 12.4771 15.699C12.4749 15.823 12.4977 15.9461 12.5442 16.061C12.5906 16.176 12.6597 16.2804 12.7473 16.368C12.835 16.4557 12.9394 16.5248 13.0543 16.5712C13.1693 16.6177 13.2924 16.6405 13.4163 16.6383C13.5403 16.6361 13.6625 16.609 13.7757 16.5585C13.889 16.508 13.9909 16.4353 14.0754 16.3446L17.7677 12.6523Z" fill="white"/>
</svg>
