<svg width="125" height="54" viewBox="0 0 125 54" fill="none" xmlns="http://www.w3.org/2000/svg">
<g filter="url(#filter0_d_45_53)">
<path fill-rule="evenodd" clip-rule="evenodd" d="M14.9686 22.7588L14.9674 22.76C14.7296 23.0049 14.5154 23.4027 14.4787 23.8388C14.4452 24.237 14.5525 24.7263 15.0542 25.243C15.5827 25.7874 16.0005 25.867 16.2987 25.8347C16.6471 25.7969 17.0578 25.5797 17.4715 25.1536L28.9092 13.3726C32.0113 10.1773 36.8483 9.72174 40.4466 12.0014C42.0367 13.0088 41.8511 15.0551 40.7795 16.1589L24.2752 33.1586C22.4746 35.0132 19.8124 36.3823 16.8492 36.5299C13.8552 36.6791 10.6284 35.577 7.75523 32.6176C4.18112 28.9362 3.48345 25.232 3.9985 22.1694C4.50216 19.1746 6.14491 16.8946 7.11331 15.8971L19.1072 3.54323C22.1792 0.378989 26.9577 -0.100605 30.5483 2.11399C32.1616 3.10903 31.985 5.17253 30.9096 6.28397L14.9686 22.7588ZM14.2499 22.0634C13.4876 22.8486 12.9361 24.497 14.3367 25.9396C15.7372 27.3821 17.1715 26.8981 18.1889 25.8502L29.6267 14.0692C32.3913 11.2216 36.7037 10.8139 39.9114 12.8461C40.8251 13.4249 40.8153 14.6863 40.062 15.4623L23.5577 32.462C20.2802 35.8379 13.8414 37.4509 8.47271 31.921C1.7618 25.0087 6.09611 18.3804 7.8308 16.5937L19.8247 4.23981C22.5624 1.41994 26.8225 0.990886 30.0234 2.96512C30.9494 3.53627 30.9475 4.80671 30.1909 5.5886L14.2499 22.0634ZM21.0524 41.4085L43.2016 18.6186C44.3155 17.4724 46.4694 17.2712 47.4583 18.9731C49.5531 22.5782 49.0969 27.3175 46.07 30.4319L32.6926 44.1963C29.63 47.3476 24.9293 47.8093 21.3854 45.5684C19.7926 44.5612 19.9798 42.5121 21.0524 41.4085ZM43.9187 19.3155C44.7041 18.5074 46.0275 18.5012 46.5937 19.4755C48.4707 22.7058 48.0571 26.9526 45.3529 29.735L31.9755 43.4994C29.247 46.3068 25.0695 46.7148 21.9199 44.7232C21.005 44.1447 21.0151 42.8817 21.7695 42.1055L43.9187 19.3155ZM69.0144 33.8572C66.7555 33.8572 64.5929 33.5493 62.5268 32.9336C61.172 32.5122 60.0008 32.0161 59.0132 31.4451C58.1447 30.943 57.9011 29.8476 58.3192 28.9356C58.9084 27.6504 60.5516 27.2403 61.8277 27.8489C62.4288 28.1356 63.0751 28.3981 63.7665 28.6366C65.4745 29.2256 67.2238 29.5201 69.0144 29.5201C70.5296 29.5201 71.7555 29.3594 72.6921 29.0382C73.6287 28.7169 74.3174 28.2885 74.7582 27.7531C75.199 27.1909 75.4194 26.5617 75.4194 25.8656C75.4194 25.0089 75.1026 24.3262 74.469 23.8175C73.8354 23.2821 73.0089 22.8671 71.9896 22.5726C70.9979 22.2513 69.8822 21.9568 68.6425 21.6891C67.4304 21.4214 66.2045 21.1135 64.9648 20.7655C63.7527 20.3906 62.637 19.9221 61.6177 19.3599C60.626 18.7709 59.8133 17.9945 59.1797 17.0307C58.5461 16.0669 58.2293 14.8354 58.2293 13.3361C58.2293 11.8101 58.6425 10.4179 59.4689 9.15959C60.3229 7.87451 61.6039 6.85715 63.3119 6.10752C65.0475 5.33112 67.2375 4.94292 69.8822 4.94292C71.6177 4.94292 73.3395 5.1571 75.0475 5.58546C76.0639 5.84038 77.0023 6.16168 77.8627 6.54934C78.848 6.99335 79.2057 8.16201 78.7891 9.15928C78.2733 10.3942 76.7916 10.8781 75.5433 10.3955C74.9723 10.1748 74.3938 9.99035 73.8078 9.84229C72.4304 9.46747 71.1081 9.28006 69.8409 9.28006C68.3532 9.28006 67.1411 9.45408 66.2045 9.80212C65.2954 10.1502 64.6205 10.6053 64.1797 11.1675C63.7665 11.7297 63.5599 12.3723 63.5599 13.0951C63.5599 13.9519 63.8629 14.6479 64.4689 15.1834C65.1026 15.6921 65.9152 16.0937 66.907 16.3882C67.9263 16.6827 69.0557 16.9772 70.2954 17.2716C71.5351 17.5394 72.761 17.8473 73.9731 18.1953C75.2128 18.5433 76.3285 18.9985 77.3202 19.5607C78.3395 20.1229 79.1522 20.8859 79.7582 21.8497C80.3918 22.8136 80.7086 24.0317 80.7086 25.5042C80.7086 27.0034 80.2816 28.3956 79.4277 29.6807C78.6012 30.939 77.3202 31.9564 75.5847 32.7328C73.8491 33.4824 71.659 33.8572 69.0144 33.8572ZM99.4238 33.8572C97.2199 33.8572 95.1676 33.5092 93.2668 32.8131C91.3935 32.0902 89.7544 31.0863 88.3494 29.8012C86.972 28.4893 85.8976 26.9499 85.1263 25.1829C84.3549 23.4159 83.9692 21.4883 83.9692 19.4001C83.9692 17.3118 84.3549 15.3842 85.1263 13.6172C85.8976 11.8502 86.9858 10.3242 88.3907 9.03911C89.7957 7.72726 91.4348 6.72329 93.3081 6.0272C95.1814 5.30435 97.2337 4.94292 99.4651 4.94292C101.834 4.94292 103.997 5.34451 105.953 6.14768C107.156 6.62528 108.244 7.24977 109.218 8.02116C110.242 8.83177 110.143 10.3441 109.179 11.2248C108.213 12.1079 106.734 12.023 105.649 11.2908C105.102 10.9215 104.528 10.6127 103.928 10.3643C102.633 9.80213 101.228 9.52102 99.7131 9.52102C98.1979 9.52102 96.8067 9.76197 95.5395 10.2439C94.2998 10.7258 93.2117 11.4085 92.275 12.292C91.3659 13.1755 90.6497 14.2196 90.1263 15.4243C89.6304 16.6291 89.3825 17.9543 89.3825 19.4001C89.3825 20.8458 89.6304 22.171 90.1263 23.3758C90.6497 24.5805 91.3659 25.6247 92.275 26.5082C93.2117 27.3916 94.2998 28.0743 95.5395 28.5563C96.8067 29.0382 98.1979 29.2791 99.7131 29.2791C101.228 29.2791 102.633 29.0114 103.928 28.4759C104.527 28.2158 105.1 27.8954 105.646 27.5148C106.729 26.76 108.224 26.6714 109.193 27.5681C110.148 28.4522 110.235 29.9598 109.212 30.7649C108.24 31.5303 107.153 32.1594 105.953 32.6524C103.997 33.4556 101.821 33.8572 99.4238 33.8572ZM116.059 30.7697C116.059 32.2531 117.261 33.4556 118.745 33.4556C120.228 33.4556 121.431 32.2531 121.431 30.7697V8.03046C121.431 6.54705 120.228 5.34451 118.745 5.34451C117.261 5.34451 116.059 6.54705 116.059 8.03046V30.7697Z" fill="white"/>
<path d="M59.3303 43.9903C59.0279 43.9903 58.7385 43.9467 58.4619 43.8594C58.1854 43.7682 57.966 43.6524 57.8037 43.5119L58.0526 42.9367C58.2075 43.062 58.3992 43.1664 58.6279 43.25C58.8565 43.3335 59.0906 43.3753 59.3303 43.3753C59.5331 43.3753 59.6972 43.3525 59.8226 43.3069C59.948 43.2614 60.0401 43.2006 60.0991 43.1247C60.1581 43.0449 60.1876 42.9557 60.1876 42.857C60.1876 42.7355 60.1452 42.6387 60.0604 42.5665C59.9756 42.4906 59.865 42.4317 59.7286 42.39C59.5958 42.3444 59.4465 42.3027 59.2805 42.2647C59.1183 42.2267 58.9542 42.1831 58.7883 42.1337C58.626 42.0805 58.4767 42.0141 58.3402 41.9344C58.2075 41.8508 58.0987 41.7407 58.0139 41.604C57.9291 41.4674 57.8867 41.2927 57.8867 41.0801C57.8867 40.8637 57.942 40.6662 58.0526 40.4878C58.1669 40.3055 58.3384 40.1612 58.567 40.0549C58.7993 39.9448 59.0925 39.8898 59.4465 39.8898C59.6788 39.8898 59.9092 39.9201 60.1379 39.9809C60.3665 40.0416 60.5656 40.129 60.7352 40.2429L60.5085 40.8181C60.3351 40.7118 60.1563 40.6339 59.9719 40.5846C59.7876 40.5314 59.6106 40.5049 59.4409 40.5049C59.2418 40.5049 59.0796 40.5295 58.9542 40.5789C58.8325 40.6283 58.7422 40.6928 58.6832 40.7725C58.6279 40.8523 58.6002 40.9434 58.6002 41.0459C58.6002 41.1674 58.6408 41.2661 58.7219 41.3421C58.8067 41.4142 58.9155 41.4711 59.0482 41.5129C59.1847 41.5547 59.3358 41.5964 59.5018 41.6382C59.6677 41.6762 59.8318 41.7198 59.9941 41.7692C60.16 41.8186 60.3093 41.8831 60.4421 41.9628C60.5785 42.0426 60.6873 42.1508 60.7684 42.2875C60.8532 42.4242 60.8956 42.5969 60.8956 42.8057C60.8956 43.0184 60.8385 43.2158 60.7242 43.398C60.6135 43.5765 60.4421 43.7208 60.2098 43.8309C59.9775 43.9372 59.6843 43.9903 59.3303 43.9903Z" fill="white"/>
<path d="M65.1707 43.9903C64.8757 43.9903 64.601 43.941 64.3466 43.8423C64.0958 43.7398 63.8764 43.5974 63.6884 43.4151C63.504 43.2291 63.3602 43.0108 63.2569 42.7602C63.1537 42.5096 63.102 42.2362 63.102 41.9401C63.102 41.6439 63.1537 41.3705 63.2569 41.1199C63.3602 40.8694 63.5058 40.6529 63.6939 40.4707C63.8819 40.2846 64.1013 40.1423 64.3521 40.0435C64.6028 39.941 64.8776 39.8898 65.1762 39.8898C65.4934 39.8898 65.7828 39.9467 66.0446 40.0606C66.3064 40.1707 66.5277 40.3359 66.7084 40.5561L66.2437 41.006C66.1036 40.8504 65.9469 40.7346 65.7736 40.6586C65.6003 40.5789 65.4122 40.539 65.2094 40.539C65.0066 40.539 64.8204 40.5732 64.6508 40.6415C64.4848 40.7099 64.3392 40.8067 64.2138 40.932C64.0921 41.0573 63.9963 41.2054 63.9262 41.3762C63.8598 41.5471 63.8266 41.735 63.8266 41.9401C63.8266 42.1451 63.8598 42.333 63.9262 42.5039C63.9963 42.6747 64.0921 42.8228 64.2138 42.9481C64.3392 43.0734 64.4848 43.1702 64.6508 43.2386C64.8204 43.3069 65.0066 43.3411 65.2094 43.3411C65.4122 43.3411 65.6003 43.3031 65.7736 43.2272C65.9469 43.1474 66.1036 43.0278 66.2437 42.8684L66.7084 43.324C66.5277 43.5404 66.3064 43.7056 66.0446 43.8195C65.7828 43.9334 65.4915 43.9903 65.1707 43.9903Z" fill="white"/>
<path d="M69.1673 43.9334V39.9467H69.8864V43.9334H69.1673Z" fill="white"/>
<path d="M72.7036 43.9334V39.9467H73.2954L75.7236 43.0165H75.4305V39.9467H76.144V43.9334H75.5521L73.124 40.8637H73.4171V43.9334H72.7036Z" fill="white"/>
<path d="M78.9514 43.9334V39.9467H79.5433L81.9714 43.0165H81.6783V39.9467H82.3918V43.9334H81.8L79.3718 40.8637H79.6649V43.9334H78.9514Z" fill="white"/>
<path d="M87.0135 43.9903C86.7111 43.9903 86.4327 43.9391 86.1783 43.8366C85.9238 43.7341 85.7026 43.5917 85.5145 43.4094C85.3265 43.2234 85.1808 43.007 85.0776 42.7602C84.9743 42.5096 84.9227 42.2362 84.9227 41.9401C84.9227 41.6439 84.9743 41.3724 85.0776 41.1256C85.1808 40.875 85.3265 40.6586 85.5145 40.4764C85.7026 40.2903 85.9238 40.1461 86.1783 40.0435C86.4327 39.941 86.7093 39.8898 87.008 39.8898C87.3103 39.8898 87.5869 39.941 87.8376 40.0435C88.0921 40.1461 88.3133 40.2903 88.5014 40.4764C88.6894 40.6586 88.8351 40.875 88.9383 41.1256C89.0416 41.3724 89.0932 41.6439 89.0932 41.9401C89.0932 42.2362 89.0416 42.5096 88.9383 42.7602C88.8351 43.0108 88.6894 43.2272 88.5014 43.4094C88.3133 43.5917 88.0921 43.7341 87.8376 43.8366C87.5869 43.9391 87.3122 43.9903 87.0135 43.9903ZM87.008 43.3411C87.2034 43.3411 87.3841 43.3069 87.55 43.2386C87.7159 43.1702 87.8598 43.0734 87.9814 42.9481C88.1031 42.819 88.1972 42.6709 88.2635 42.5039C88.3336 42.333 88.3686 42.1451 88.3686 41.9401C88.3686 41.735 88.3336 41.549 88.2635 41.3819C88.1972 41.2111 88.1031 41.063 87.9814 40.9377C87.8598 40.8086 87.7159 40.7099 87.55 40.6415C87.3841 40.5732 87.2034 40.539 87.008 40.539C86.8125 40.539 86.6318 40.5732 86.4659 40.6415C86.3037 40.7099 86.1598 40.8086 86.0345 40.9377C85.9128 41.063 85.8169 41.2111 85.7469 41.3819C85.6805 41.549 85.6473 41.735 85.6473 41.9401C85.6473 42.1413 85.6805 42.3273 85.7469 42.4982C85.8169 42.669 85.9128 42.819 86.0345 42.9481C86.1562 43.0734 86.3 43.1702 86.4659 43.2386C86.6318 43.3069 86.8125 43.3411 87.008 43.3411Z" fill="white"/>
<path d="M92.6515 43.9334L90.9589 39.9467H91.7388L93.2488 43.5518H92.8008L94.3274 39.9467H95.0465L93.3595 43.9334H92.6515Z" fill="white"/>
<path d="M96.5532 43.9334L98.2955 39.9467H99.0035L100.751 43.9334H99.9991L98.5002 40.3397H98.7878L97.2944 43.9334H96.5532ZM97.3552 43.0108L97.5488 42.4298H99.6396L99.8332 43.0108H97.3552Z" fill="white"/>
<path d="M103.605 43.9334V40.5732H102.321V39.9467H105.607V40.5732H104.324V43.9334H103.605Z" fill="white"/>
<path d="M107.917 43.9334V39.9467H108.636V43.9334H107.917Z" fill="white"/>
<path d="M113.267 43.9903C112.965 43.9903 112.686 43.9391 112.432 43.8366C112.177 43.7341 111.956 43.5917 111.768 43.4094C111.58 43.2234 111.434 43.007 111.331 42.7602C111.228 42.5096 111.176 42.2362 111.176 41.9401C111.176 41.6439 111.228 41.3724 111.331 41.1256C111.434 40.875 111.58 40.6586 111.768 40.4764C111.956 40.2903 112.177 40.1461 112.432 40.0435C112.686 39.941 112.963 39.8898 113.262 39.8898C113.564 39.8898 113.84 39.941 114.091 40.0435C114.346 40.1461 114.567 40.2903 114.755 40.4764C114.943 40.6586 115.089 40.875 115.192 41.1256C115.295 41.3724 115.347 41.6439 115.347 41.9401C115.347 42.2362 115.295 42.5096 115.192 42.7602C115.089 43.0108 114.943 43.2272 114.755 43.4094C114.567 43.5917 114.346 43.7341 114.091 43.8366C113.84 43.9391 113.566 43.9903 113.267 43.9903ZM113.262 43.3411C113.457 43.3411 113.638 43.3069 113.804 43.2386C113.97 43.1702 114.113 43.0734 114.235 42.9481C114.357 42.819 114.451 42.6709 114.517 42.5039C114.587 42.333 114.622 42.1451 114.622 41.9401C114.622 41.735 114.587 41.549 114.517 41.3819C114.451 41.2111 114.357 41.063 114.235 40.9377C114.113 40.8086 113.97 40.7099 113.804 40.6415C113.638 40.5732 113.457 40.539 113.262 40.539C113.066 40.539 112.885 40.5732 112.719 40.6415C112.557 40.7099 112.413 40.8086 112.288 40.9377C112.166 41.063 112.07 41.2111 112 41.3819C111.934 41.549 111.901 41.735 111.901 41.9401C111.901 42.1413 111.934 42.3273 112 42.4982C112.07 42.669 112.166 42.819 112.288 42.9481C112.41 43.0734 112.554 43.1702 112.719 43.2386C112.885 43.3069 113.066 43.3411 113.262 43.3411Z" fill="white"/>
<path d="M117.879 43.9334V39.9467H118.471L120.899 43.0165H120.606V39.9467H121.319V43.9334H120.727L118.299 40.8637H118.592V43.9334H117.879Z" fill="white"/>
</g>
<defs>
<filter id="filter0_d_45_53" x="0.847656" y="0.748047" width="123.583" height="53.252" filterUnits="userSpaceOnUse" color-interpolation-filters="sRGB">
<feFlood flood-opacity="0" result="BackgroundImageFix"/>
<feColorMatrix in="SourceAlpha" type="matrix" values="0 0 0 0 0 0 0 0 0 0 0 0 0 0 0 0 0 0 127 0" result="hardAlpha"/>
<feOffset dy="4"/>
<feGaussianBlur stdDeviation="1.5"/>
<feComposite in2="hardAlpha" operator="out"/>
<feColorMatrix type="matrix" values="0 0 0 0 0 0 0 0 0 0 0 0 0 0 0 0 0 0 0.1 0"/>
<feBlend mode="normal" in2="BackgroundImageFix" result="effect1_dropShadow_45_53"/>
<feBlend mode="normal" in="SourceGraphic" in2="effect1_dropShadow_45_53" result="shape"/>
</filter>
</defs>
</svg>
